<?xml version="1.0" encoding="utf-8"?>
<svg viewBox="0 0 500 500" xmlns="http://www.w3.org/2000/svg">
  <g transform="matrix(0.844448, 0, 0, 0.874167, 120.498001, 41.143341)" style="">
    <g xmlns="http://www.w3.org/2000/svg" fill="#d4e1f4" transform="matrix(1, 0, 0, 1, -9.473649, 0)">
      <path d="m93.703125 215.441406c-.035156-.191406-.078125-.382812-.132813-.566406l-4.9375-16.984375c-.417968-2.511719-2.378906-4.488281-4.886718-4.925781-5.101563-.90625-9.601563-3.882813-12.433594-8.226563-2.832031-4.339843-3.738281-9.660156-2.507812-14.695312 1.070312-4.476563 4.511718-8 8.957031-9.175781 5.808593 2.867187 12.667969 2.609374 18.246093-.683594 5.574219-3.292969 9.113282-9.179688 9.40625-15.648438l1.359376-29.847656c2.171874.027344 4.882812.03125 8.042968-.019531-.332031-.28125-.671875-.554688-1-.84375-11.757812.847656-21.277344.9375-27.039062.863281l-1.359375 29.847656c-.273438 6.480469-3.808594 12.378906-9.390625 15.675782-5.582032 3.296874-12.453125 3.546874-18.261719.65625-4.445313 1.175781-7.886719 4.699218-8.957031 9.175781-1.230469 5.035156-.324219 10.355469 2.507812 14.695312 2.832032 4.34375 7.332032 7.320313 12.433594 8.226563 2.507812.4375 4.46875 2.414062 4.886719 4.925781l4.9375 16.984375c.054687.183594.097656.375.132812.566406 8.261719 44.300782 49.472657 74.59375 94.222657 69.257813-37.21875-4.390625-67.273438-32.433594-74.226563-69.257813zm0 0" fill="#d4e1f4" data-original="#d4e1f4" style="" class=""/>
      <path d="m167.945312 12.542969c-26.09375-2.839844-52.160156 5.550781-71.699218 23.074219-19.539063 17.527343-30.699219 42.535156-30.699219 68.78125v46.4375c1.960937.179687 3.910156-.449219 5.398437-1.742188 1.488282-1.292969 2.382813-3.136719 2.480469-5.105469l1.628907-35.726562c.070312-1.59375.777343-3.09375 1.960937-4.167969 1.179687-1.074219 2.742187-1.632812 4.335937-1.550781.058594 0 1.558594.074219 4.21875.117187.929688-46.460937 36.183594-85.027344 82.375-90.117187zm0 0" fill="#d4e1f4" data-original="#d4e1f4" style="" class=""/>
      <path d="m140.160156 316.269531v-20.597656c-6.863281-1.269531-13.566406-3.273437-20-5.972656v26.570312c14.832032 7.164063 31.402344 9.960938 47.765625 8.058594-9.644531-1.101563-19.03125-3.824219-27.765625-8.058594zm0 0" fill="#d4e1f4" data-original="#d4e1f4" style="" class=""/>
      <path d="m33.027344 381.613281c.132812-.574219.277344-1.144531.433594-1.714843 3.980468-14.5 15.230468-26.027344 30.09375-30.84375l58.375-18.929688c-2.851563-1.113281-5.65625-2.367188-8.414063-3.757812l-69.960937 22.6875c-14.863282 4.816406-26.113282 16.34375-30.09375 30.84375-.15625.570312-.300782 1.140624-.433594 1.714843-.714844 3.179688-1.058594 6.425781-1.023438 9.683594v43.398437h20v-43.394531c-.035156-3.257812.308594-6.507812 1.023438-9.6875zm0 0" fill="#d4e1f4" data-original="#d4e1f4" style="" class=""/>
    </g>
    <path xmlns="http://www.w3.org/2000/svg" d="M 252.872 149.602 L 252.872 104.398 C 252.872 46.742 206.129 0 148.473 0 C 90.813 0 44.071 46.742 44.071 104.398 L 44.071 149.59 C 35.891 152.164 29.668 158.848 27.676 167.191 C 23.817 182.969 32.891 199.031 48.399 203.871 L 52.493 217.949 C 57.758 245.457 74.579 269.383 98.684 283.641 L 98.684 315.492 L 30.379 337.641 C 11.665 343.707 -2.527 358.316 -7.582 376.723 C -7.781 377.438 -7.964 378.16 -8.132 378.887 C -9.054 382.961 -9.503 387.125 -9.468 391.301 L -9.468 440.699 C -9.468 444.016 -6.781 446.699 -3.468 446.699 L 180.485 446.699 L 180.485 434.699 L 2.532 434.699 L 2.532 391.301 C 2.497 388.043 2.84 384.797 3.555 381.621 C 3.688 381.047 3.832 380.473 3.989 379.906 C 7.969 365.406 19.219 353.879 34.082 349.059 L 104.043 326.375 C 131.973 340.41 164.899 340.418 192.832 326.387 L 254.332 346.898 L 258.129 335.516 L 198.227 315.535 L 198.227 283.641 C 222.332 269.379 239.153 245.457 244.418 217.949 L 248.512 203.867 C 264.02 199.027 273.09 182.969 269.235 167.188 C 267.247 158.859 261.036 152.184 252.872 149.602 Z M 157.188 105.563 C 165.387 114.387 192.348 139.082 240.872 143.875 L 240.872 148.676 C 222.821 148.316 166.04 144.504 121.543 112.152 C 122.332 112.051 123.125 111.949 123.922 111.852 C 135.125 110.418 146.235 108.316 157.188 105.563 Z M 56.075 104.398 C 56.075 53.367 97.442 12 148.473 12 C 199.504 12 240.872 53.367 240.872 104.398 L 240.872 131.793 C 204.114 127.824 180.95 111.215 170.497 101.754 C 188.856 95.852 204.446 88.023 217.094 78.32 C 218.848 77.035 219.766 74.902 219.497 72.746 C 219.231 70.59 217.817 68.746 215.805 67.926 C 213.79 67.109 211.493 67.441 209.793 68.801 C 184.231 88.406 148.262 96.547 122.59 99.922 C 105.786 102.164 88.825 103.039 71.879 102.543 C 70.286 102.461 68.723 103.02 67.54 104.094 C 66.36 105.168 65.653 106.668 65.579 108.266 L 63.954 143.992 C 63.856 145.961 62.961 147.801 61.473 149.094 C 59.985 150.387 58.036 151.016 56.071 150.84 Z M 186.219 316.27 C 162.36 327.785 134.547 327.785 110.688 316.27 L 110.688 289.699 C 134.844 299.836 162.063 299.836 186.219 289.699 Z M 242.625 192.965 C 240.118 193.402 238.161 195.379 237.743 197.891 L 232.805 214.875 C 232.75 215.063 232.704 215.25 232.668 215.441 C 225.043 255.945 189.665 285.281 148.45 285.281 C 107.235 285.281 71.856 255.945 64.231 215.441 C 64.196 215.25 64.149 215.059 64.094 214.875 L 59.157 197.891 C 58.739 195.379 56.782 193.402 54.274 192.965 C 49.168 192.059 44.668 189.082 41.836 184.738 C 39.008 180.398 38.098 175.078 39.332 170.043 C 40.399 165.566 43.84 162.043 48.29 160.867 C 54.094 163.734 60.957 163.477 66.532 160.184 C 72.106 156.891 75.645 151.004 75.938 144.535 L 77.297 114.688 C 83.059 114.762 92.579 114.672 104.336 113.824 C 134.149 139.488 170.844 150.867 196.629 155.895 C 225.055 161.438 246.211 160.699 247.098 160.664 C 247.266 160.66 247.426 160.641 247.586 160.621 C 252.481 161.516 256.395 165.207 257.567 170.043 C 258.797 175.078 257.891 180.395 255.059 184.738 C 252.231 189.078 247.731 192.059 242.625 192.965 Z M 242.625 192.965" fill="#002043" data-original="#0635c9" style="" class=""/>
    <path xmlns="http://www.w3.org/2000/svg" d="M 390.961 328.949 C 381.809 322.715 364.543 310.352 351.75 297.555 C 338.161 283.961 323.161 263.344 317.344 255.109 C 315.481 252.477 312.622 250.719 309.434 250.246 C 306.243 249.77 302.997 250.625 300.45 252.605 L 234.336 304.027 C 229.258 307.934 228.247 315.195 232.063 320.344 C 240.45 331.766 249.528 342.934 259.098 353.602 L 156.071 456.629 C 154.649 458.047 154.036 460.082 154.43 462.047 L 158.618 482.988 C 159.09 485.367 160.95 487.227 163.325 487.699 L 184.266 491.891 C 186.235 492.281 188.266 491.664 189.688 490.246 L 200.168 479.766 L 213.942 481.254 C 215.719 481.445 217.489 480.836 218.77 479.59 C 220.051 478.344 220.711 476.594 220.567 474.813 L 219.735 464.344 L 231.204 464.559 C 232.985 464.59 234.688 463.832 235.856 462.484 C 237.02 461.137 237.528 459.344 237.239 457.586 L 235.137 444.797 L 292.711 387.219 C 303.379 396.789 314.547 405.863 325.973 414.254 C 331.122 418.07 338.379 417.059 342.29 411.98 L 393.625 345.961 C 395.629 343.387 396.477 340.098 395.973 336.879 C 395.469 333.656 393.653 330.785 390.957 328.949 Z M 332.926 404.465 C 320.27 395.156 308.137 385.16 296.579 374.516 C 294.215 372.336 290.547 372.41 288.274 374.688 L 224.473 438.484 C 223.106 439.852 222.481 441.793 222.793 443.699 L 224.227 452.426 L 213.336 452.223 C 211.641 452.184 210.008 452.871 208.856 454.113 C 207.696 455.344 207.11 457.012 207.243 458.699 L 208.028 468.551 L 198.594 467.531 C 196.79 467.34 194.993 467.973 193.707 469.254 L 183.469 479.492 L 169.598 476.723 L 166.825 462.852 L 271.625 358.051 C 273.899 355.777 273.973 352.109 271.793 349.742 C 261.149 338.188 251.153 326.055 241.844 313.398 L 307.661 262.199 C 315.141 272.777 329.606 292.379 343.266 306.039 C 356.668 319.438 374.489 332.238 384.036 338.75 Z M 332.926 404.465" fill="#4dcbbf" data-original="#1ae5be" style="" class=""/>
    <path xmlns="http://www.w3.org/2000/svg" d="M 319.118 301.199 L 308.059 288.563 C 305.965 286.168 302.368 285.824 299.86 287.773 L 284.782 299.5 C 282.493 301.281 281.805 304.449 283.153 307.02 L 301.579 342.199 C 302.145 343.281 303.028 344.164 304.11 344.73 L 339.29 363.16 C 341.86 364.504 345.028 363.82 346.809 361.527 L 358.536 346.449 C 360.489 343.941 360.145 340.344 357.75 338.25 L 345.114 327.191 C 335.883 319.113 327.2 310.43 319.118 301.199 Z M 345.586 343.555 L 340.415 350.199 L 311.34 334.969 L 296.11 305.898 L 302.758 300.73 L 310.086 309.105 C 318.52 318.738 327.579 327.797 337.211 336.23 Z M 345.586 343.555" fill="#4dcbbf" data-original="#1ae5be" style="" class=""/>
  </g>
</svg>