<?xml version="1.0" encoding="utf-8"?>
<!-- Generator: Adobe Illustrator 16.0.3, SVG Export Plug-In . SVG Version: 6.00 Build 0)  -->
<!DOCTYPE svg PUBLIC "-//W3C//DTD SVG 1.1//EN" "http://www.w3.org/Graphics/SVG/1.1/DTD/svg11.dtd">
<svg version="1.1" id="Calque_1" xmlns="http://www.w3.org/2000/svg" xmlns:xlink="http://www.w3.org/1999/xlink" x="0px" y="0px"
	 width="115.667px" height="76.535px" viewBox="0 0 115.667 76.535" enable-background="new 0 0 115.667 76.535"
	 xml:space="preserve">
<g>
	<path fill="#002043" d="M18.247,37.243h-5.029v-2.582h12.866v2.582h-5.029v13.274h-2.809V37.243z"/>
	<path fill="#002043" d="M29.029,34.661h2.786v6.592h7.566v-6.592h2.786v15.856h-2.786v-6.683h-7.566v6.683h-2.786V34.661z"/>
	<path fill="#002043" d="M46.403,34.661h2.786v15.856h-2.786V34.661z"/>
	<path fill="#002043" d="M53.424,34.661h7.067c1.979,0,3.503,0.528,4.576,1.585c0.875,0.891,1.313,2.03,1.313,3.419v0.046
		c0,2.475-1.253,4.075-3.76,4.8l4.281,6.007h-3.307l-3.896-5.527H56.21v5.527h-2.786V34.661z M60.288,42.499
		c0.981,0,1.774-0.24,2.378-0.722c0.589-0.481,0.883-1.12,0.883-1.918v-0.045c0-1.744-1.095-2.616-3.284-2.616H56.21v5.301H60.288z"
		/>
	<path fill="#002043" d="M69.96,34.661h2.786v15.856H69.96V34.661z"/>
	<path fill="#002043" d="M76.982,34.661h11.757v2.492h-8.971v4.123h7.951v2.492h-7.951v4.258h9.084v2.492h-11.87V34.661z"/>
	<path fill="#002043" d="M91.592,48.456l9.355-11.326h-9.061v-2.492h12.708V36.7l-9.378,11.326h9.378v2.492H91.592V48.456z"/>
</g>
<g>
	<path d="M14.084,27.742c-0.623-0.636-0.935-1.441-0.935-2.417v-0.019c0-0.938,0.318-1.74,0.954-2.407
		c0.654-0.673,1.472-1.01,2.454-1.01c0.981,0,1.828,0.299,2.539,0.896l-0.736,0.878c-0.554-0.472-1.17-0.708-1.85-0.708
		c-0.604,0-1.114,0.23-1.529,0.689c-0.409,0.459-0.613,1.006-0.613,1.642v0.019c0,0.679,0.205,1.243,0.613,1.689
		c0.428,0.447,0.972,0.67,1.633,0.67c0.616,0,1.148-0.167,1.595-0.5V25.93h-1.689v-1.01h2.813v2.775
		c-0.799,0.686-1.718,1.029-2.756,1.029C15.557,28.724,14.726,28.396,14.084,27.742z"/>
	<path d="M20.842,22.003h2.945c0.824,0,1.459,0.22,1.906,0.661c0.365,0.371,0.547,0.846,0.547,1.424v0.019
		c0,1.031-0.522,1.698-1.566,2l1.784,2.503H25.08l-1.624-2.303h-1.454v2.303h-1.161V22.003z M23.702,25.269
		c0.409,0,0.739-0.1,0.991-0.301c0.246-0.2,0.368-0.467,0.368-0.799v-0.019c0-0.727-0.456-1.09-1.369-1.09h-1.689v2.208H23.702z"/>
	<path d="M28.336,27.723c-0.642-0.654-0.963-1.454-0.963-2.397v-0.019c0-0.95,0.324-1.752,0.972-2.407
		c0.661-0.673,1.492-1.01,2.492-1.01c1.006,0,1.834,0.333,2.482,1c0.642,0.648,0.963,1.447,0.963,2.397v0.019
		c0,0.95-0.324,1.752-0.972,2.407c-0.661,0.673-1.491,1.01-2.492,1.01C29.812,28.724,28.984,28.39,28.336,27.723z M32.442,26.968
		c0.415-0.447,0.623-0.994,0.623-1.643v-0.019c0-0.661-0.211-1.214-0.632-1.661c-0.421-0.459-0.959-0.689-1.614-0.689
		c-0.642,0-1.177,0.227-1.604,0.68c-0.416,0.44-0.623,0.991-0.623,1.652v0.019c0,0.661,0.211,1.211,0.632,1.651
		c0.421,0.459,0.959,0.689,1.614,0.689C31.485,27.647,32.02,27.421,32.442,26.968z"/>
	<path d="M36.349,27.978c-0.51-0.503-0.765-1.227-0.765-2.171v-3.804h1.161v3.756c0,0.598,0.147,1.063,0.443,1.397
		c0.296,0.321,0.705,0.481,1.227,0.481c0.522,0,0.928-0.154,1.218-0.462c0.295-0.314,0.443-0.771,0.443-1.369v-3.804h1.161v3.747
		c0,0.963-0.258,1.702-0.774,2.218c-0.491,0.497-1.18,0.746-2.067,0.746C37.522,28.714,36.84,28.469,36.349,27.978z"/>
	<path d="M42.833,22.003h2.605c0.768,0,1.381,0.202,1.84,0.604c0.447,0.409,0.67,0.944,0.67,1.604v0.019
		c0,0.717-0.258,1.277-0.774,1.68c-0.478,0.384-1.101,0.576-1.869,0.576h-1.312v2.124h-1.161V22.003z M45.343,25.449
		c0.435,0,0.78-0.111,1.039-0.332c0.258-0.221,0.387-0.505,0.387-0.853v-0.019c0-0.379-0.129-0.673-0.387-0.881
		c-0.258-0.202-0.604-0.303-1.039-0.303h-1.35v2.388H45.343z"/>
	<path d="M49.138,22.003h4.898v1.038h-3.738v1.718h3.313v1.039h-3.313v1.774h3.785v1.038h-4.946V22.003z"/>
</g>
<line fill="none" stroke="#002043" stroke-width="0.604" x1="7.813" y1="58.353" x2="110" y2="58.353"/>
<g>
	<path d="M7.885,62.757h2.206v0.448H8.406v0.764H9.9v0.448H8.406v1.14H7.885V62.757z"/>
	<path d="M11.377,62.736h0.483l1.304,2.82h-0.55l-0.301-0.676h-1.401l-0.305,0.676h-0.533L11.377,62.736z M12.122,64.44l-0.512-1.12
		l-0.508,1.12H12.122z"/>
	<path d="M13.671,62.753H15c0.342,0,0.6,0.083,0.775,0.248c0.133,0.126,0.199,0.281,0.199,0.466v0.008
		c0,0.278-0.141,0.487-0.423,0.626c0.392,0.123,0.588,0.35,0.588,0.68v0.009c0,0.245-0.101,0.436-0.301,0.571
		c-0.192,0.131-0.457,0.196-0.796,0.196h-1.372V62.753z M15.454,63.549c0-0.237-0.173-0.356-0.521-0.356h-0.75v0.744h0.711
		c0.373,0,0.559-0.127,0.559-0.38V63.549z M15.619,64.727c0-0.249-0.203-0.374-0.609-0.374h-0.826v0.764h0.864
		c0.381,0,0.571-0.127,0.571-0.382V64.727z"/>
	<path d="M16.728,62.757h1.321c0.37,0,0.655,0.093,0.855,0.279c0.164,0.157,0.246,0.358,0.246,0.604v0.008
		c0,0.437-0.234,0.72-0.703,0.848l0.8,1.061h-0.618L17.9,64.581h-0.652v0.976h-0.521V62.757z M18.01,64.141
		c0.184,0,0.332-0.042,0.444-0.127c0.11-0.086,0.166-0.198,0.166-0.339v-0.008c0-0.309-0.205-0.462-0.614-0.462h-0.757v0.936H18.01z
		"/>
	<path d="M19.818,62.757h0.521v2.8h-0.521V62.757z"/>
	<path d="M21.249,65.185c-0.288-0.277-0.432-0.617-0.432-1.02v-0.009c0-0.405,0.142-0.746,0.427-1.023
		c0.291-0.283,0.658-0.424,1.101-0.424c0.455,0,0.841,0.146,1.16,0.436l-0.334,0.364c-0.266-0.232-0.542-0.349-0.83-0.349
		c-0.28,0-0.512,0.097-0.699,0.288c-0.186,0.188-0.279,0.42-0.279,0.7v0.008c0,0.277,0.092,0.511,0.275,0.7
		c0.189,0.195,0.423,0.292,0.703,0.292c0.296,0,0.58-0.12,0.851-0.359l0.334,0.319c-0.333,0.331-0.734,0.496-1.202,0.496
		C21.895,65.604,21.536,65.465,21.249,65.185z"/>
	<path d="M25.122,62.736h0.483l1.304,2.82h-0.55l-0.301-0.676h-1.401l-0.305,0.676h-0.533L25.122,62.736z M25.867,64.44l-0.512-1.12
		l-0.508,1.12H25.867z"/>
	<path d="M27.416,62.757h0.483l1.587,1.936v-1.936h0.512v2.8h-0.436l-1.634-1.992v1.992h-0.512V62.757z"/>
	<path d="M31.112,63.213h-0.939v-0.456h2.404v0.456h-0.94v2.344h-0.525V63.213z"/>
	<path d="M34.397,62.757h2.206v0.448h-1.685v0.764h1.494v0.448h-1.494v1.14h-0.521V62.757z"/>
	<path d="M37.174,62.757h1.321c0.37,0,0.655,0.093,0.855,0.279c0.164,0.157,0.246,0.358,0.246,0.604v0.008
		c0,0.437-0.234,0.72-0.703,0.848l0.8,1.061h-0.618l-0.728-0.976h-0.652v0.976h-0.521V62.757z M38.457,64.141
		c0.184,0,0.332-0.042,0.444-0.127c0.11-0.086,0.166-0.198,0.166-0.339v-0.008c0-0.309-0.205-0.462-0.614-0.462h-0.757v0.936H38.457
		z"/>
	<path d="M41.284,62.736h0.483l1.304,2.82h-0.55l-0.301-0.676h-1.401l-0.305,0.676H39.98L41.284,62.736z M42.029,64.44l-0.512-1.12
		l-0.508,1.12H42.029z"/>
	<path d="M43.579,62.757h0.483l1.587,1.936v-1.936h0.512v2.8h-0.436l-1.634-1.992v1.992h-0.512V62.757z"/>
	<path d="M47.481,66.041l0.331-0.465c-0.353-0.061-0.642-0.224-0.868-0.487c-0.223-0.259-0.334-0.566-0.334-0.924v-0.009
		c0-0.405,0.142-0.746,0.427-1.023c0.291-0.283,0.658-0.424,1.101-0.424c0.455,0,0.841,0.146,1.16,0.436l-0.334,0.364
		c-0.266-0.232-0.542-0.349-0.83-0.349c-0.28,0-0.512,0.097-0.699,0.288c-0.186,0.188-0.279,0.42-0.279,0.7v0.008
		c0,0.277,0.092,0.511,0.275,0.7c0.189,0.195,0.423,0.292,0.703,0.292c0.296,0,0.58-0.12,0.851-0.359l0.334,0.319
		C49,65.421,48.63,65.585,48.21,65.601l-0.28,0.62L47.481,66.041z"/>
	<path d="M50.915,62.736h0.483l1.304,2.82h-0.55l-0.301-0.676h-1.401l-0.305,0.676h-0.533L50.915,62.736z M51.66,64.44l-0.512-1.12
		l-0.508,1.12H51.66z"/>
	<path d="M53.239,62.757h0.521v2.8h-0.521V62.757z"/>
	<path d="M54.306,65.145l0.313-0.352c0.293,0.242,0.605,0.363,0.936,0.363c0.161,0,0.29-0.033,0.385-0.1
		c0.093-0.064,0.14-0.148,0.14-0.252v-0.008c0-0.104-0.042-0.186-0.127-0.244c-0.096-0.064-0.276-0.125-0.542-0.185
		c-0.35-0.082-0.593-0.176-0.729-0.279c-0.172-0.128-0.258-0.313-0.258-0.557v-0.008c0-0.24,0.094-0.436,0.283-0.588
		c0.192-0.149,0.435-0.224,0.729-0.224c0.409,0,0.768,0.118,1.075,0.355l-0.28,0.372c-0.273-0.191-0.542-0.288-0.804-0.288
		c-0.146,0-0.265,0.032-0.355,0.097c-0.084,0.059-0.127,0.137-0.127,0.235v0.008c0,0.107,0.046,0.191,0.14,0.253
		c0.048,0.029,0.119,0.06,0.211,0.092c0.093,0.031,0.212,0.063,0.356,0.096c0.327,0.075,0.564,0.171,0.711,0.288
		c0.158,0.134,0.237,0.311,0.237,0.532v0.008c0,0.259-0.099,0.464-0.296,0.616c-0.189,0.146-0.443,0.22-0.762,0.22
		C55.067,65.597,54.655,65.446,54.306,65.145z"/>
	<path d="M58.483,62.757h1.105c0.46,0,0.839,0.133,1.139,0.399c0.291,0.265,0.436,0.595,0.436,0.992v0.008
		c0,0.4-0.146,0.732-0.436,0.996c-0.302,0.27-0.682,0.404-1.139,0.404h-1.105V62.757z M59.004,63.205v1.903h0.584
		c0.311,0,0.56-0.089,0.75-0.268c0.186-0.174,0.279-0.398,0.279-0.676v-0.009c0-0.277-0.093-0.504-0.279-0.68
		c-0.192-0.182-0.442-0.271-0.75-0.271H59.004z"/>
	<path d="M61.794,62.757h2.197v0.439h-1.676v0.729h1.486v0.439h-1.486v0.752h1.697v0.44h-2.218V62.757z"/>
	<path d="M65.9,62.757h0.521v2.352h1.558v0.448H65.9V62.757z"/>
	<path d="M68.55,62.757h0.521v2.8H68.55V62.757z"/>
	<path d="M70.213,63.213h-0.939v-0.456h2.404v0.456h-0.94v2.344h-0.525V63.213z"/>
	<path d="M72.229,62.757h2.197v0.439H72.75v0.729h1.486v0.439H72.75v0.752h1.697v0.44h-2.218V62.757z"/>
	<path d="M75.065,62.757h1.321c0.37,0,0.655,0.093,0.855,0.279c0.164,0.157,0.246,0.358,0.246,0.604v0.008
		c0,0.437-0.234,0.72-0.703,0.848l0.8,1.061h-0.618l-0.728-0.976h-0.652v0.976h-0.521V62.757z M76.348,64.141
		c0.184,0,0.332-0.042,0.444-0.127c0.11-0.086,0.166-0.198,0.166-0.339v-0.008c0-0.309-0.205-0.462-0.614-0.462h-0.757v0.936H76.348
		z"/>
	<path d="M78.155,62.757h0.521v2.8h-0.521V62.757z"/>
	<path d="M79.467,62.757h2.197v0.439h-1.676v0.729h1.486v0.439h-1.486v0.752h1.697v0.44h-2.218V62.757z"/>
	<path d="M83.574,62.757h1.105c0.46,0,0.839,0.133,1.139,0.399c0.291,0.265,0.436,0.595,0.436,0.992v0.008
		c0,0.4-0.146,0.732-0.436,0.996c-0.302,0.27-0.682,0.404-1.139,0.404h-1.105V62.757z M84.095,63.205v1.903h0.584
		c0.311,0,0.56-0.089,0.75-0.268c0.186-0.174,0.279-0.398,0.279-0.676v-0.009c0-0.277-0.093-0.504-0.279-0.68
		c-0.192-0.182-0.442-0.271-0.75-0.271H84.095z"/>
	<path d="M86.884,62.757h2.197v0.439h-1.676v0.729h1.486v0.439h-1.486v0.752h1.697v0.44h-2.218V62.757z"/>
	<path d="M89.72,62.757h1.168c0.344,0,0.62,0.085,0.826,0.256c0.2,0.173,0.3,0.4,0.3,0.68V63.7c0,0.305-0.116,0.542-0.347,0.713
		c-0.214,0.162-0.494,0.243-0.838,0.243h-0.588v0.9H89.72V62.757z M90.846,64.217c0.195,0,0.35-0.047,0.466-0.141
		s0.173-0.214,0.173-0.361v-0.008c0-0.161-0.058-0.285-0.173-0.374c-0.116-0.086-0.271-0.128-0.466-0.128h-0.605v1.012H90.846z"/>
	<path d="M92.844,65.289c-0.229-0.214-0.343-0.521-0.343-0.921v-1.611h0.521v1.592c0,0.253,0.066,0.451,0.199,0.592
		c0.132,0.136,0.316,0.204,0.55,0.204c0.234,0,0.416-0.065,0.546-0.196c0.133-0.133,0.199-0.326,0.199-0.58v-1.611h0.521v1.588
		c0,0.408-0.116,0.722-0.347,0.939c-0.22,0.211-0.529,0.316-0.927,0.316C93.371,65.601,93.064,65.497,92.844,65.289z"/>
	<path d="M95.782,62.757h0.521v2.8h-0.521V62.757z"/>
	<path d="M96.849,65.145l0.313-0.352c0.293,0.242,0.605,0.363,0.936,0.363c0.161,0,0.29-0.033,0.385-0.1
		c0.093-0.064,0.14-0.148,0.14-0.252v-0.008c0-0.104-0.042-0.186-0.127-0.244c-0.096-0.064-0.276-0.125-0.542-0.185
		c-0.35-0.082-0.593-0.176-0.729-0.279c-0.172-0.128-0.258-0.313-0.258-0.557v-0.008c0-0.24,0.094-0.436,0.283-0.588
		c0.192-0.149,0.435-0.224,0.729-0.224c0.409,0,0.768,0.118,1.075,0.355l-0.28,0.372c-0.273-0.191-0.542-0.288-0.804-0.288
		c-0.146,0-0.265,0.032-0.355,0.097c-0.084,0.059-0.127,0.137-0.127,0.235v0.008c0,0.107,0.046,0.191,0.14,0.253
		c0.048,0.029,0.119,0.06,0.211,0.092c0.093,0.031,0.212,0.063,0.356,0.096c0.327,0.075,0.564,0.171,0.711,0.288
		c0.158,0.134,0.237,0.311,0.237,0.532v0.008c0,0.259-0.099,0.464-0.296,0.616c-0.189,0.146-0.443,0.22-0.762,0.22
		C97.611,65.597,97.199,65.446,96.849,65.145z"/>
	<path d="M101.399,63.236l-0.533,0.141l-0.11-0.4l0.799-0.24h0.357v2.82h-0.512V63.236z"/>
	<path d="M104.155,64.853c0.107-0.165,0.162-0.358,0.165-0.58c-0.172,0.2-0.405,0.3-0.698,0.3c-0.316,0-0.57-0.08-0.762-0.239
		c-0.192-0.166-0.288-0.382-0.288-0.648v-0.008c0-0.28,0.102-0.51,0.305-0.688c0.206-0.187,0.473-0.279,0.8-0.279
		c0.333,0,0.608,0.099,0.826,0.296c0.237,0.227,0.355,0.582,0.355,1.067v0.009c0,0.458-0.111,0.825-0.334,1.1
		c-0.229,0.282-0.541,0.424-0.936,0.424c-0.347,0-0.663-0.112-0.948-0.336l0.284-0.376c0.226,0.176,0.452,0.264,0.677,0.264
		C103.84,65.156,104.025,65.056,104.155,64.853z M104.138,64.009c0.107-0.094,0.161-0.211,0.161-0.353v-0.008
		c0-0.149-0.057-0.271-0.169-0.368c-0.113-0.099-0.263-0.147-0.449-0.147c-0.181,0-0.325,0.051-0.432,0.151
		c-0.104,0.097-0.157,0.219-0.157,0.368v0.008c0,0.147,0.055,0.268,0.165,0.36c0.113,0.094,0.26,0.14,0.44,0.14
		C103.878,64.16,104.025,64.11,104.138,64.009z"/>
	<path d="M106.932,64.853c0.107-0.165,0.162-0.358,0.165-0.58c-0.172,0.2-0.405,0.3-0.698,0.3c-0.316,0-0.57-0.08-0.762-0.239
		c-0.192-0.166-0.288-0.382-0.288-0.648v-0.008c0-0.28,0.102-0.51,0.305-0.688c0.206-0.187,0.473-0.279,0.8-0.279
		c0.333,0,0.608,0.099,0.826,0.296c0.237,0.227,0.355,0.582,0.355,1.067v0.009c0,0.458-0.111,0.825-0.334,1.1
		c-0.229,0.282-0.541,0.424-0.936,0.424c-0.347,0-0.663-0.112-0.948-0.336l0.284-0.376c0.226,0.176,0.452,0.264,0.677,0.264
		C106.617,65.156,106.802,65.056,106.932,64.853z M106.915,64.009c0.107-0.094,0.161-0.211,0.161-0.353v-0.008
		c0-0.149-0.057-0.271-0.169-0.368c-0.113-0.099-0.263-0.147-0.449-0.147c-0.181,0-0.325,0.051-0.432,0.151
		c-0.104,0.097-0.157,0.219-0.157,0.368v0.008c0,0.147,0.055,0.268,0.165,0.36c0.113,0.094,0.26,0.14,0.44,0.14
		C106.655,64.16,106.802,64.11,106.915,64.009z"/>
	<path d="M108.629,63.236l-0.533,0.141l-0.11-0.4l0.799-0.24h0.357v2.82h-0.512V63.236z"/>
</g>
<line fill="none" stroke="#002043" stroke-width="1.888" x1="8.739" y1="18.162" x2="8.739" y2="51.131"/>
</svg>
